General
Complete name                            : 
Format                                   : MPEG-4
Format profile                           : Base Media
Codec ID                                 : isom
File size                                : 837 KiB
Duration                                 : 10s 111ms
Overall bit rate                         : 678 Kbps
Writing application                      : Lavf57.57.100

Video
ID                                       : 1
Format                                   : MPEG-4 Visual
Format profile                           : Simple@L1
Format settings, BVOP                    : No
Format settings, QPel                    : No
Format settings, GMC                     : No warppoints
Format settings, Matrix                  : Default (H.263)
Codec ID                                 : 20
Duration                                 : 10s 111ms
Bit rate mode                            : Constant
Bit rate                                 : 543 Kbps
Width                                    : 420 pixels
Height                                   : 270 pixels
Display aspect ratio                     : 16:9
Frame rate mode                          : Constant
Frame rate                               : 29.970 fps
Color space                              : YUV
Chroma subsampling                       : 4:2:0
Bit depth                                : 8 bits
Scan type                                : Progressive
Compression mode                         : Lossy
Bits/(Pixel*Frame)                       : 0.160
Stream size                              : 670 KiB (80%)
Writing library                          : Lavc57.66.101
Language                                 : English

Audio
ID                                       : 2
Format                                   : AAC
Format/Info                              : Advanced Audio Codec
Format profile                           : LC
Codec ID                                 : 40
Duration                                 : 10s 24ms
Duration_LastFrame                       : -8ms
Bit rate mode                            : Constant
Bit rate                                 : 128 Kbps
Channel(s)                               : 2 channels
Channel positions                        : Front: L R
Sampling rate                            : 44.1 KHz
Compression mode                         : Lossy
Stream size                              : 156 KiB (19%)

Other
ID                                       : 3
Type                                     : Time code
Format                                   : QuickTime TC
Duration                                 : 10s 111ms
Time code of first frame                 : 04:00:00:10
Time code, striped                       : Yes
Language                                 : English


